<?xml version="1.0" encoding="iso-8859-1"?>
<!-- Generator: Adobe Illustrator 23.0.3, SVG Export Plug-In . SVG Version: 6.00 Build 0)  -->
<svg version="1.1" id="Layer_1" xmlns="http://www.w3.org/2000/svg" xmlns:xlink="http://www.w3.org/1999/xlink" x="0px" y="0px"
	 viewBox="0 0 1098 235" style="enable-background:new 0 0 1098 235;" xml:space="preserve">
<g>
	<g>
		<path style="fill:#FFFFFF;" d="M63.983,146.789c-4.673,2.023-8.846,4.857-12.728,8.098c-12.749,10.647-22.279,23.605-27.747,39.37
			c-1.642,4.733-2.63,9.623-2.054,14.709c0.895,7.887,5.848,12.472,13.865,13.005c8.886,0.592,16.484-2.631,23.442-7.723
			c9.125-6.679,15.923-15.444,21.861-24.922c8.593-13.715,14.862-28.515,20.231-43.725c10.32-29.234,20.602-58.481,30.981-87.694
			c2.745-7.726,5.752-15.37,9.709-22.576c3.397-6.187,7.334-12.047,12.433-16.966c6.549-6.318,14.385-10.246,23.41-11.706
			c0.244-0.039,0.515-0.017,0.661-0.286h9.188c2.547,0.412,5.103,0.774,7.639,1.245c5.125,0.952,10.05,2.579,14.924,4.407
			c1.466,0.55,0.959,1.376,0.716,2.283c-0.334,1.247-1.117,0.379-1.56,0.226c-5.781-1.996-11.688-3.185-17.835-2.999
			c-10.118,0.307-18.32,4.652-25.102,11.94c-1.386,1.491-2.566,3.171-3.91,4.702c-0.707,0.807-0.72,1.518-0.315,2.484
			c7.483,17.847,14.93,35.708,22.39,53.564c11.328,27.111,22.658,54.221,33.99,81.33c3.203,7.663,8.531,12.949,16.802,14.88
			c1.488,0.348,3.021,0.505,4.557,0.416c0.844-0.05,1.289,0.101,1.3,1.131c0.01,1.062-0.396,1.284-1.346,1.282
			c-9.442-0.023-18.884-0.014-28.326-0.013c-5.257,0-10.515-0.019-15.771,0.017c-0.966,0.007-1.455-0.102-1.463-1.288
			c-0.01-1.233,0.65-1.118,1.443-1.126c5.916-0.055,9.613-3.034,10.391-8.467c0.272-1.897-0.195-3.766-0.877-5.527
			c-5.3-13.675-10.649-27.329-15.928-41.011c-0.417-1.079-1.116-0.975-1.919-0.975H134.21c-2.45,0-4.905,0.092-7.348-0.035
			c-1.41-0.074-2.01,0.366-2.466,1.733c-2.984,8.933-5.853,17.913-9.181,26.719c-7.868,20.819-19.079,39.662-34.38,55.911
			c-7.758,8.239-16.55,15.162-27.4,19.002c-11.146,3.943-22.043,3.205-32.637-2.006c-5.915-2.909-9.383-8.013-12.041-13.76
			c-1.895-4.095-3.03-8.426-3.483-12.925c-0.03-0.3-0.012-0.619-0.274-0.845v-9.187c0.45-2.223,0.819-4.468,1.364-6.668
			c2.783-11.244,8.958-20.456,17.26-28.326c10.831-10.267,23.684-17.223,37.474-22.604c3.463-1.353,6.945-2.654,10.257-4.363
			c9.313-4.802,15.066-12.556,18.467-22.257c0.47-1.343,0.884-2.706,1.409-4.323c0.929,2.564,1.445,5.001,1.952,7.433
			c1.805,8.666,2.685,17.424,2.359,26.276c-0.592,16.12-4.619,31.192-13.932,44.586c-7.407,10.652-17.149,18.627-28.559,24.657
			c-6.827,3.608-13.995,6.355-21.378,8.587c-1.324,0.401-1.621,0.159-1.632-1.203c-0.111-13.744,3.511-26.486,10.303-38.357
			c5.736-10.027,13.523-18.226,22.765-25.089c0.363-0.27,0.695-0.582,1.04-0.875c0.113-0.049,0.302-0.056,0.194-0.243
			C64.325,146.679,64.108,146.76,63.983,146.789 M155.39,39.489c-2.334,4.709-4.218,9.164-5.863,13.713
			c-7.6,21.019-14.466,42.291-21.785,63.407c-0.562,1.619,0.451,1.258,1.254,1.258c18.424,0.005,36.849,0.004,55.273,0.005
			c0.204,0,0.41-0.015,0.612,0.001c0.762,0.063,1.057-0.214,0.735-0.97c-0.14-0.329-0.266-0.663-0.395-0.995
			c-8.276-21.203-16.551-42.407-24.828-63.61C158.771,48.14,157.146,43.985,155.39,39.489"/>
	</g>
	<g>
		<path style="fill:#FFFFFF;" d="M222.527,155.818c-1.119-2.646-2.246-5.291-3.354-7.942c-3.597-8.597-7.176-17.202-10.792-25.79
			c-0.485-1.154-0.692-2.302-0.691-3.551c0.019-26.687,0.015-53.374,0.015-80.061c0-8.749-6.46-15.281-15.201-15.371
			c-0.511-0.005-1.025-0.041-1.531,0.007c-1.384,0.131-1.03-0.988-1.164-1.669c-0.193-0.98,0.628-0.717,1.11-0.716
			c21.282,0.019,42.568-0.156,63.847,0.169c10.72,0.163,20.711,3.256,29.153,10.286c8.032,6.69,12.34,15.421,13.837,25.625
			c1.27,8.66,0.825,17.184-2.479,25.409c-5.081,12.648-14.441,20.706-27.115,25.184c-3.756,1.327-7.569,2.479-11.59,2.571
			c-8.718,0.2-17.157-1.087-25.12-4.854c-1.29-0.61-0.778-1.671-0.676-2.514c0.075-0.625,0.776-0.147,1.148-0.076
			c6.902,1.327,13.797,1.456,20.626-0.341c14.623-3.848,24.568-12.743,27.492-27.801c2.339-12.044,1.045-23.943-5.956-34.534
			c-5.663-8.568-14.109-11.992-24.093-12.071c-8.574-0.068-17.15,0.021-25.723-0.05c-1.375-0.011-1.53,0.478-1.529,1.658
			c0.029,41.587,0.024,83.174,0.024,124.761v1.617C222.686,155.783,222.606,155.8,222.527,155.818"/>
	</g>
	<g>
		<path style="fill:#FFFFFF;" d="M899.346,122.159c8.049,8.825,15.9,17.46,23.781,26.068c7.199,7.863,14.389,15.737,22.444,22.758
			c5.201,4.534,10.778,8.389,17.604,10.077c2.693,0.666,5.419,0.921,8.192,0.761c0.458-0.026,1.17-0.56,1.338,0.414
			c0.149,0.86-0.57,0.855-1.071,0.973c-7.647,1.799-15.143,1.51-22.502-1.468c-6.909-2.796-12.549-7.382-17.768-12.511
			c-6.954-6.833-13.079-14.433-19.664-21.611c-7.619-8.306-15.155-16.689-22.749-25.017c-1.102-1.209-2.365-2.277-3.938-2.835
			c-0.608-0.215-0.826-0.519-0.719-1.108c0.128-0.699,0.699-0.465,1.106-0.469c3.874-0.034,7.75,0.076,11.564-0.86
			c8.666-2.127,12.987-7.13,13.805-16.021c0.335-3.649-0.027-7.227-1.028-10.735c-2.178-7.63-7.338-11.54-15.249-11.578
			c-4.237-0.021-8.474,0.044-12.709-0.034c-1.235-0.023-1.514,0.363-1.511,1.544c0.038,14.952,0.025,29.903,0.025,44.855
			c0,9.032-0.004,18.065,0.001,27.097c0.002,4.736,3.195,7.971,7.923,8.042c0.153,0.003,0.308,0.012,0.459-0.001
			c0.669-0.055,1.116,0.165,1.078,0.915c-0.039,0.767-0.657,0.418-1.044,0.507c-0.097,0.022-0.204,0.004-0.306,0.004
			c-8.166,0-16.333,0.006-24.5-0.019c-0.492-0.001-1.333,0.421-1.332-0.677c0.002-1.064,0.814-0.705,1.334-0.716
			c4.982-0.107,8.193-3.308,8.197-8.319c0.015-22.402,0.014-44.804,0.001-67.206c-0.003-5.164-3.146-8.337-8.354-8.543
			c-0.504-0.02-1.214,0.238-1.176-0.715c0.038-0.95,0.766-0.646,1.247-0.646c10.822-0.016,21.643-0.06,32.463,0.011
			c4.417,0.029,8.728,0.75,12.695,2.891c6.32,3.412,10.154,8.649,11.017,15.767c1.049,8.635-1.008,16.411-7.287,22.758
			C909.11,120.153,904.749,122.09,899.346,122.159"/>
	</g>
	<g>
		<path style="fill:#FFFFFF;" d="M329.519,161.925c-3.777-0.001-7.554,0.007-11.331-0.01c-0.444-0.002-1.071,0.251-1.099-0.627
			c-0.024-0.767,0.423-0.783,0.979-0.793c5.405-0.101,8.891-3.074,10.882-7.778c6.649-15.709,13.164-31.474,19.733-47.217
			c3.413-8.177,6.819-16.358,10.266-24.52c0.337-0.799,0.315-1.331-0.233-2.044c-4.266-5.55-9.66-8.845-16.866-8.544
			c-2.664,0.112-5.24,0.753-7.764,1.592c-0.406,0.135-0.781,0.341-0.977-0.253c-0.164-0.495-0.08-0.801,0.447-1.101
			c8.415-4.788,21.042-3.911,28.484,2.155c3.653,2.977,6.193,6.903,8.322,11.048c3.455,6.725,5.735,13.927,8.287,21.017
			c5.448,15.137,10.383,30.461,16.29,45.431c3.806,9.645,8.879,18.588,15.89,26.301c5.83,6.414,12.981,9.907,21.848,9.233
			c0.558-0.042,1.109-0.161,1.667-0.214c0.363-0.034,0.843-0.308,0.972,0.341c0.114,0.573-0.017,0.922-0.674,1.122
			c-7.461,2.279-14.83,2.661-22.005-1.018c-7.816-4.009-13.532-10.227-18.213-17.491c-5.257-8.162-8.731-17.131-11.783-26.287
			c-1.127-3.38-2.32-6.739-3.424-10.127c-0.296-0.908-0.713-1.278-1.72-1.274c-10.462,0.037-20.926,0.037-31.389,0.001
			c-1.005-0.003-1.419,0.398-1.753,1.27c-2.606,6.799-5.255,13.582-7.884,20.373c-0.424,1.095-0.795,2.207-0.724,3.412
			c0.149,2.502,2.223,4.444,4.849,4.587c0.58,0.031,1.51-0.35,1.477,0.757c-0.035,1.148-1,0.625-1.53,0.631
			C336.868,161.947,333.194,161.925,329.519,161.925 M377.514,126.954c-5.051-13.817-8.942-27.909-14.896-41.757
			c-5.541,14.188-10.901,27.914-16.307,41.757C346.311,126.954,377.514,126.954,377.514,126.954z"/>
	</g>
	<g>
		<path style="fill:#FFFFFF;" d="M852.839,118.501c0.087,10.127-2.337,19.492-8.624,27.611
			c-6.809,8.793-15.802,14.185-26.656,16.322c-10.738,2.114-21.476,1.95-31.771-2.061c-16.709-6.509-26.229-18.742-27.991-36.723
			c-0.908-9.259,0.163-18.261,4.534-26.59c6.372-12.142,16.602-19.416,29.849-22.297c11.115-2.418,22.28-2.184,32.948,2.082
			c15.905,6.359,25.229,18.073,27.393,35.244C852.79,114.224,852.802,116.358,852.839,118.501 M767.205,119.264
			c-0.077,2.934,0.254,6.688,1.046,10.392c2.427,11.356,8.281,20.327,18.628,25.948c7.273,3.952,15.178,4.825,23.308,3.923
			c13.715-1.523,23.536-8.722,29.007-21.216c5.518-12.598,5.43-25.64,0.532-38.441c-3.436-8.975-9.716-15.62-18.59-19.552
			c-6.234-2.762-12.823-3.479-19.594-2.967c-11.94,0.901-21.264,6.262-27.795,16.297
			C768.859,101.159,767.17,109.569,767.205,119.264"/>
	</g>
	<g>
		<path style="fill:#FFFFFF;" d="M582.887,118.503c-0.002-10.733,2.708-20.564,9.732-28.922c7.421-8.83,17.011-13.813,28.319-15.478
			c9.603-1.415,19.194-1.159,28.36,2.288c16.884,6.349,26.704,18.454,28.62,36.568c0.989,9.35-0.054,18.458-4.423,26.918
			c-5.331,10.32-13.688,17.345-24.659,20.922c-12.847,4.186-25.892,4.274-38.504-0.755c-15.929-6.353-25.073-18.265-27.122-35.436
			C582.967,122.574,582.97,120.54,582.887,118.503 M668.459,117.387c0.066-2.501-0.267-6.103-0.999-9.656
			c-2.355-11.427-8.166-20.486-18.525-26.207c-6.853-3.783-14.328-4.788-22.064-4.158c-14.431,1.176-24.794,8.403-30.532,21.571
			c-5.265,12.082-5.233,24.636-0.894,37.017c3.295,9.399,9.563,16.421,18.708,20.601c6.755,3.088,13.911,3.745,21.247,2.994
			c11.27-1.154,20.039-6.472,26.289-15.87C666.749,136.071,668.455,127.514,668.459,117.387"/>
	</g>
	<g>
		<path style="fill:#FFFFFF;" d="M985.024,163.575c-4.88,0.245-10.365-0.486-15.636-2.079c-5.889-1.781-11.256-4.697-16.029-8.72
			c-4.371-3.684-7.852-8.025-10.419-13.069c-2.112-4.152-3.404-8.609-4.07-13.238c-0.685-4.765-0.626-9.566-0.264-14.32
			c0.328-4.309,1.526-8.491,3.22-12.521c2.224-5.287,5.439-9.87,9.584-13.774c7.007-6.599,15.422-10.314,24.889-11.766
			c3.942-0.605,7.909-0.78,11.886-0.651c12.334,0.402,23.449,4.001,32.556,12.669c6.503,6.188,10.509,13.753,12.111,22.578
			c0.663,3.651,0.97,7.346,0.874,11.051c-0.313,12.251-4.175,23.015-13.356,31.53c-6.459,5.994-14.081,9.611-22.683,11.299
			C993.725,163.342,989.731,163.652,985.024,163.575 M948.03,119.033c-0.212,2.752,0.093,6.062,0.711,9.284
			c1.77,9.239,5.764,17.275,13.146,23.438c4.152,3.466,8.856,5.795,14.036,7.036c5.051,1.211,10.23,1.373,15.408,0.716
			c13.12-1.664,22.776-8.417,28.321-20.345c5.81-12.494,5.859-25.502,1.268-38.382c-3.365-9.435-9.758-16.422-19.021-20.496
			c-7.175-3.154-14.744-3.727-22.42-2.59c-13.471,1.996-22.673,9.61-28.049,21.945C948.825,105.618,947.92,111.969,948.03,119.033"
			/>
	</g>
	<g>
		<path style="fill:#FFFFFF;" d="M544.127,122.179c5.387,3.736,8.654,8.815,12.141,13.714c4.524,6.354,8.952,12.781,14.622,18.23
			c3.714,3.57,7.802,6.229,13.143,6.373c0.505,0.014,0.917,0.083,0.941,0.72c0.021,0.531-0.228,0.716-0.736,0.711
			c-4.884-0.048-9.785,0.299-14.547-1.326c-5.548-1.893-10.047-5.193-13.447-9.901c-5.402-7.482-10.652-15.073-16.006-22.588
			c-1.657-2.328-3.453-4.555-5.737-6.327c-1.43-1.109-2.975-1.976-4.819-2.14c-0.569-0.051-1.015-0.13-0.946-0.861
			c0.084-0.884,0.732-0.508,1.159-0.501c4.232,0.063,8.46,0.053,12.586-1.071c7.767-2.115,12.859-8.865,12.913-16.941
			c0.027-4.12-0.325-8.155-2.096-11.937c-2.711-5.785-7.195-8.975-13.672-9.12c-4.538-0.103-9.076-0.125-13.613-0.242
			c-1.009-0.026-1.282,0.284-1.282,1.287c0.027,24.235,0.012,48.471,0.031,72.706c0.003,4.066,3.304,7.386,7.352,7.529
			c0.408,0.015,0.817,0.016,1.224,0.004c0.529-0.014,0.871,0.131,0.905,0.751c0.039,0.724-0.426,0.676-0.895,0.676
			c-1.94-0.002-3.879,0-5.818,0c-6.38,0-12.759,0.009-19.138-0.017c-0.503-0.002-1.349,0.399-1.352-0.676
			c-0.002-1.044,0.813-0.709,1.343-0.72c5.05-0.107,8.19-3.208,8.195-8.275c0.022-22.45,0.024-44.9,0-67.35
			c-0.005-5.094-3.177-8.252-8.284-8.444c-0.486-0.018-1.239,0.299-1.25-0.647c-0.013-1.05,0.816-0.713,1.34-0.714
			c10.769-0.017,21.537-0.071,32.305,0.011c5.645,0.042,11.066,1.096,15.696,4.648c6.494,4.98,8.763,11.803,8.341,19.687
			c-0.35,6.56-2.82,12.251-7.464,16.958C553.752,119.943,549.527,121.925,544.127,122.179"/>
	</g>
	<g>
		<path style="fill:#FFFFFF;" d="M487.745,120.32c3.624,0,7.247-0.012,10.871,0.013c0.481,0.004,1.234-0.314,1.271,0.624
			c0.041,1.054-0.786,0.678-1.318,0.739c-0.403,0.045-0.816-0.002-1.223,0.014c-3.772,0.144-5.595,1.978-5.613,5.763
			c-0.03,6.327-0.027,12.655,0.006,18.981c0.005,0.927-0.252,1.633-0.838,2.35c-6.417,7.861-15.008,11.925-24.694,13.852
			c-9.267,1.843-18.523,1.477-27.411-1.898c-15.048-5.716-23.894-16.786-26.663-32.528c-1.655-9.41-1.299-18.864,2.247-27.866
			c5.647-14.337,16.142-23.207,31.323-25.997c13.634-2.506,26.683-0.557,38.801,6.508c1.054,0.615,1.576,1.305,1.731,2.587
			c0.564,4.651,1.303,9.282,1.976,13.921c0.015,0.1,0.055,0.208,0.033,0.302c-0.132,0.569,0.616,1.466-0.373,1.673
			c-0.993,0.207-0.845-0.854-1.012-1.395c-3.689-11.912-12.12-18.218-24.075-20.225c-6.633-1.113-13.229-0.795-19.563,1.671
			c-8.969,3.493-15.181,9.999-18.662,18.77c-5.542,13.961-5.669,28.167,0.616,41.904c5.731,12.525,15.822,19.287,29.761,19.694
			c10.404,0.303,19.633-3.004,27.668-9.645c0.875-0.723,1.183-1.49,1.174-2.615c-0.052-6.633-0.022-13.265-0.027-19.898
			c-0.003-3.785-1.888-5.749-5.662-5.906c-0.56-0.024-1.122-0.011-1.684-0.009c-0.487,0.002-0.926-0.019-0.922-0.699
			c0.003-0.685,0.449-0.687,0.932-0.686c1.123,0.005,2.246,0.002,3.369,0.002C482.437,120.321,485.091,120.321,487.745,120.32"/>
	</g>
	<g>
		<path style="fill:#FFFFFF;" d="M705.651,116.735c0,11.683-0.001,23.366,0,35.048c0,5.504,2.88,8.51,8.357,8.719
			c0.557,0.022,1.18-0.105,1.132,0.797c-0.045,0.841-0.668,0.618-1.125,0.619c-8.318,0.01-16.635,0.011-24.953-0.003
			c-0.438-0.001-1.079,0.267-1.114-0.609c-0.036-0.899,0.569-0.78,1.128-0.804c5.402-0.225,8.409-3.331,8.411-8.745
			c0.009-22.345,0.008-44.69,0-67.035c-0.002-4.749-3.261-8.1-7.99-8.269c-0.357-0.012-0.717,0.001-1.07-0.043
			c-0.395-0.048-0.409-0.375-0.434-0.688c-0.029-0.36,0.095-0.6,0.475-0.623c0.408-0.024,0.817-0.025,1.224-0.025
			c10.155-0.001,20.31-0.046,30.464,0.015c6.664,0.04,12.994,1.314,18.235,5.83c5.083,4.378,7.155,10.141,7.443,16.665
			c0.566,12.797-7.27,22.551-20.595,24.943c-4.991,0.895-9.948-0.11-14.63-2.171c-0.57-0.251-1.048-0.536-0.84-1.219
			c0.259-0.846,0.945-0.354,1.394-0.28c6.651,1.1,12.846-0.031,18.223-4.169c4.527-3.485,6.795-8.302,7.035-14.013
			c0.168-4.05-0.154-8.044-1.701-11.863c-2.576-6.361-7.718-9.856-14.589-9.866c-4.337-0.006-8.675,0.049-13.011-0.032
			c-1.251-0.024-1.497,0.392-1.493,1.549C705.666,92.554,705.651,104.645,705.651,116.735"/>
	</g>
	<g>
		<path style="fill:#FFFFFF;" d="M1085.128,82.384c-0.001,2.143,0.013,4.285-0.013,6.427c-0.005,0.443,0.262,1.11-0.587,1.143
			c-0.764,0.03-0.586-0.61-0.607-0.99c-0.387-6.844-5.719-10.699-11.179-11.52c-7.414-1.115-13.651,1.913-16.546,7.914
			c-2.802,5.812-1.466,12.743,3.376,17.23c7.928,7.346,15.817,14.737,23.847,21.97c5.189,4.674,7.101,10.527,6.906,17.259
			c-0.213,7.368-3.063,13.447-9.131,17.809c-4.594,3.302-9.88,4.218-15.391,4.002c-4.501-0.177-8.905-0.998-13.14-2.597
			c-0.429-0.161-0.848-0.347-1.274-0.518c-3.88-1.561-6.206-3.928-5.804-8.622c0.322-3.761,0.388-7.521,1.541-11.154
			c0.171-0.538,0.148-1.361,1.064-1.189c1.003,0.187,0.479,1.019,0.436,1.495c-0.655,7.374,3.112,14.425,9.375,17.299
			c7.246,3.324,19.74,1.602,23.948-8.953c2.505-6.283,0.952-13.194-3.982-17.8c-8.049-7.516-16.22-14.904-24.166-22.526
			c-6.293-6.036-7.49-13.591-4.853-21.569c2.592-7.839,8.237-12.566,16.555-13.798c4.288-0.635,8.543-0.217,12.773,0.545
			c1.459,0.263,2.91,0.455,4.4,0.426c2.452-0.047,2.452-0.012,2.452,2.513V82.384z"/>
	</g>
</g>
</svg>
